<mxfile host="app.diagrams.net" agent="Mozilla/5.0 (Windows NT 10.0; Win64; x64) AppleWebKit/537.36 (KHTML, like Gecko) Chrome/130.0.0.0 Safari/537.36" version="24.8.3">
  <diagram name="Page-1" id="NfButQZjhZ4wamLMoBEm">
    <mxGraphModel dx="812" dy="423" grid="0" gridSize="10" guides="1" tooltips="1" connect="1" arrows="1" fold="1" page="0" pageScale="1" pageWidth="850" pageHeight="1100" math="0" shadow="0">
      <root>
        <mxCell id="0" />
        <mxCell id="1" parent="0" />
        <mxCell id="r2IzdM8W7e8GS-kkfY3J-23" value="" style="edgeStyle=none;curved=1;rounded=0;orthogonalLoop=1;jettySize=auto;html=1;fontSize=12;startSize=8;endSize=8;entryX=0;entryY=0.5;entryDx=0;entryDy=0;" parent="1" source="r2IzdM8W7e8GS-kkfY3J-8" target="r2IzdM8W7e8GS-kkfY3J-22" edge="1">
          <mxGeometry relative="1" as="geometry">
            <Array as="points" />
          </mxGeometry>
        </mxCell>
        <mxCell id="r2IzdM8W7e8GS-kkfY3J-26" value="patient views hospitals" style="edgeLabel;html=1;align=center;verticalAlign=middle;resizable=0;points=[];fontSize=12;" parent="r2IzdM8W7e8GS-kkfY3J-23" vertex="1" connectable="0">
          <mxGeometry x="-0.1542" y="-4" relative="1" as="geometry">
            <mxPoint x="-1" y="-4" as="offset" />
          </mxGeometry>
        </mxCell>
        <mxCell id="r2IzdM8W7e8GS-kkfY3J-8" value="HomePage" style="rounded=1;whiteSpace=wrap;html=1;arcSize=24;shadow=0;comic=0;labelBackgroundColor=none;fontFamily=Verdana;fontSize=12;align=center;shape=ellipse;perimeter=ellipsePerimeter;" parent="1" vertex="1">
          <mxGeometry x="275" y="138.81" width="78" height="68.38" as="geometry" />
        </mxCell>
        <mxCell id="r2IzdM8W7e8GS-kkfY3J-15" value="" style="edgeStyle=none;orthogonalLoop=1;jettySize=auto;html=1;rounded=0;fontSize=12;startSize=8;endSize=8;curved=1;exitX=1;exitY=0;exitDx=0;exitDy=0;entryX=0.5;entryY=1;entryDx=0;entryDy=0;" parent="1" source="r2IzdM8W7e8GS-kkfY3J-7" edge="1">
          <mxGeometry width="140" relative="1" as="geometry">
            <mxPoint x="460" y="360" as="sourcePoint" />
            <mxPoint x="236" y="132" as="targetPoint" />
            <Array as="points">
              <mxPoint x="410" y="320" />
            </Array>
          </mxGeometry>
        </mxCell>
        <mxCell id="r2IzdM8W7e8GS-kkfY3J-25" value="" style="rounded=0;orthogonalLoop=1;jettySize=auto;html=1;fontSize=12;startSize=8;endSize=8;entryX=0;entryY=0.5;entryDx=0;entryDy=0;" parent="1" edge="1">
          <mxGeometry x="0.041" y="2" relative="1" as="geometry">
            <mxPoint as="offset" />
            <mxPoint x="608.9954598203103" y="172.56598633758847" as="sourcePoint" />
            <mxPoint x="729.999999999995" y="174.5" as="targetPoint" />
          </mxGeometry>
        </mxCell>
        <mxCell id="nO5Aho05mlF-UJNVFOQG-1" value="&lt;span style=&quot;font-size: 12px;&quot;&gt;patient logs out&lt;/span&gt;" style="edgeLabel;html=1;align=center;verticalAlign=middle;resizable=0;points=[];" vertex="1" connectable="0" parent="r2IzdM8W7e8GS-kkfY3J-25">
          <mxGeometry x="-0.0697" y="2" relative="1" as="geometry">
            <mxPoint y="1" as="offset" />
          </mxGeometry>
        </mxCell>
        <mxCell id="r2IzdM8W7e8GS-kkfY3J-22" value="Hospital Wait times GUI" style="rounded=1;whiteSpace=wrap;html=1;arcSize=24;shadow=0;comic=0;labelBackgroundColor=none;fontFamily=Verdana;fontSize=12;align=center;shape=ellipse;perimeter=ellipsePerimeter;" parent="1" vertex="1">
          <mxGeometry x="509" y="131" width="100" height="84" as="geometry" />
        </mxCell>
        <mxCell id="r2IzdM8W7e8GS-kkfY3J-24" value="Logout GUI" style="rounded=1;whiteSpace=wrap;html=1;arcSize=24;shadow=0;comic=0;labelBackgroundColor=none;fontFamily=Verdana;fontSize=12;align=center;shape=ellipse;perimeter=ellipsePerimeter;" parent="1" vertex="1">
          <mxGeometry x="730" y="141" width="79" height="69" as="geometry" />
        </mxCell>
      </root>
    </mxGraphModel>
  </diagram>
</mxfile>
